<svg xmlns="http://www.w3.org/2000/svg" viewBox="0 0 26.43 26.3"><g id="Ebene_2" data-name="Ebene 2"><g id="Ebene_1-2" data-name="Ebene 1"><path d="M.5,13.14A12.57,12.57,0,0,1,2.78,5.92a2.46,2.46,0,0,1-.4-.3A13,13,0,0,0,0,13.14,13.17,13.17,0,0,0,15.77,26c-.06-.16-.11-.32-.16-.48a13.13,13.13,0,0,1-2.45.24A12.68,12.68,0,0,1,.5,13.14Z"/><path d="M2.78,5.92A2.32,2.32,0,1,0,4,1.61a2.27,2.27,0,0,0-.65.1A2.31,2.31,0,0,0,1.63,3.92a2.29,2.29,0,0,0,.75,1.7A2.46,2.46,0,0,0,2.78,5.92Z"/><path d="M25.93,13.16a12.49,12.49,0,0,1-2.28,7.22,3.08,3.08,0,0,1,.41.3A13.16,13.16,0,0,0,10.66.26c.06.16.11.32.16.48A13.13,13.13,0,0,1,13.27.5,12.68,12.68,0,0,1,25.93,13.16Z"/><path d="M23.65,20.38a2.32,2.32,0,1,0-1.17,4.31,2.27,2.27,0,0,0,.65-.1,2.31,2.31,0,0,0,.93-3.91A3.08,3.08,0,0,0,23.65,20.38Z"/></g></g></svg>