<svg xmlns="http://www.w3.org/2000/svg" viewBox="0 0 22.64 22.64"><g id="Ebene_2" data-name="Ebene 2"><g id="Ebene_1-2" data-name="Ebene 1"><path d="M12.49,9.33a2.32,2.32,0,1,0-1.17,4.31,2,2,0,0,0,.65-.11,2.3,2.3,0,0,0,.92-3.91A2,2,0,0,0,12.49,9.33Z"/><path d="M3.49,9.33A2.29,2.29,0,0,0,.4,10a2.32,2.32,0,0,0,1.92,3.62A2,2,0,0,0,3,13.53a2.3,2.3,0,0,0,.92-3.91A2.27,2.27,0,0,0,3.49,9.33Z"/><path d="M21.49,9.33a2.32,2.32,0,1,0-1.17,4.31,2,2,0,0,0,.65-.11,2.3,2.3,0,0,0,.92-3.91A2,2,0,0,0,21.49,9.33Z"/><path d="M12.49.33A2.22,2.22,0,0,0,11.32,0a2.33,2.33,0,1,0,1.57.62A2,2,0,0,0,12.49.33Z"/><path d="M3.49.33A2.22,2.22,0,0,0,2.32,0a2.32,2.32,0,0,0,0,4.64A2.33,2.33,0,0,0,3,4.53,2.3,2.3,0,0,0,3.89.62,2.27,2.27,0,0,0,3.49.33Z"/><path d="M21.49.33A2.22,2.22,0,0,0,20.32,0a2.33,2.33,0,1,0,1.57.62A2,2,0,0,0,21.49.33Z"/><path d="M12.49,18.33a2.32,2.32,0,1,0-1.17,4.31,2,2,0,0,0,.65-.11,2.31,2.31,0,0,0,1.67-2.21,2.28,2.28,0,0,0-.75-1.69A1.68,1.68,0,0,0,12.49,18.33Z"/><path d="M3.49,18.33A2.29,2.29,0,0,0,.4,19a2.32,2.32,0,0,0,1.92,3.62A2,2,0,0,0,3,22.53a2.31,2.31,0,0,0,1.67-2.21,2.28,2.28,0,0,0-.75-1.69A1.9,1.9,0,0,0,3.49,18.33Z"/><path d="M21.49,18.33a2.32,2.32,0,1,0-1.17,4.31,2,2,0,0,0,.65-.11,2.31,2.31,0,0,0,1.67-2.21,2.28,2.28,0,0,0-.75-1.69A1.68,1.68,0,0,0,21.49,18.33Z"/></g></g></svg>